<svg width="80" height="80" viewBox="0 0 80 80" fill="none" xmlns="http://www.w3.org/2000/svg">
<rect x="1.59961" y="5" width="72" height="70" fill="black"/>
<path d="M0 40V80H36.875H73.75V79.375V78.75H75H76.25V79.375V80H76.875H77.5V79.375V78.75H78.75H80V39.375V0H40H0V40ZM38.3906 5.96875C38.4453 6.10938 38.5234 6.34375 38.5547 6.49219C38.6406 6.89062 39.8203 9.1875 40.6875 10.625C41.0312 11.2031 41.2969 11.6953 41.4062 11.9609C41.4609 12.1016 41.6797 12.4844 41.8906 12.8047C42.0938 13.125 42.2656 13.4219 42.2656 13.4766C42.2656 13.5312 42.3203 13.6172 42.3828 13.6719C42.4531 13.7266 42.7031 14.1094 42.9453 14.5234C43.1797 14.9375 43.4375 15.3438 43.5078 15.4297C43.5859 15.5156 43.7266 15.7578 43.8359 15.9609C43.9375 16.1641 44.0938 16.4141 44.1797 16.5078C44.3906 16.7344 45.0938 17.7969 45.2188 18.0781C45.2734 18.1953 45.4844 18.5 45.6953 18.7422C45.8984 18.9844 46.2344 19.4219 46.4375 19.7266C46.6328 20.0234 46.9453 20.4766 47.125 20.7188C47.3125 20.9688 47.6562 21.4375 47.8906 21.7656C48.125 22.0938 48.4531 22.5156 48.6172 22.7109C48.7734 22.8984 48.9062 23.0859 48.9062 23.1172C48.9062 23.1484 49.0859 23.3828 49.2969 23.6406C49.5156 23.8906 49.7188 24.1328 49.75 24.1797C49.7812 24.2188 50.0703 24.5781 50.3906 24.9766C50.9062 25.6094 51.3125 26.1562 51.7188 26.7578C51.7812 26.8516 52 27.1406 52.2109 27.3906C52.4141 27.6406 52.6797 27.9922 52.7891 28.1641C52.9062 28.3359 53.1484 28.6719 53.3203 28.9062C53.4922 29.1406 53.6953 29.4609 53.7734 29.6094C53.8438 29.7578 54.0078 30.0391 54.1406 30.2344C54.5859 30.9297 54.9062 31.5312 55.0391 31.9531C55.1172 32.1875 55.2422 32.4922 55.3203 32.625C55.4453 32.8516 55.9141 34.2188 55.9844 34.5625C56 34.6406 56.0469 34.8203 56.0859 34.9531C56.3594 35.8281 56.4219 36.5312 56.3828 38.125C56.3594 39.0078 56.3047 39.8516 56.25 40C56.2031 40.1484 56.1484 40.4062 56.125 40.5781C56.1016 40.7422 56.0391 41.0234 55.9766 41.2031C55.9219 41.375 55.8516 41.6484 55.8203 41.7969C55.75 42.1484 55.4297 42.9766 55.1719 43.4766C55.0625 43.6875 54.9141 44.0625 54.8438 44.2969C54.7656 44.5312 54.5625 44.9531 54.3828 45.2344C54.2109 45.5156 53.9766 45.9062 53.8672 46.1016C53.5781 46.6484 53.25 47.1172 52.9375 47.4141C52.7812 47.5625 52.6562 47.7188 52.6562 47.7656C52.6562 47.8047 52.2969 48.1953 51.8594 48.6328C51.1328 49.3438 50.7812 49.6406 50.3828 49.8828C50.3125 49.9219 50.0625 50.0859 49.8359 50.2422C49.6016 50.3984 49.1016 50.6797 48.7109 50.8594C48.3281 51.0391 47.9219 51.2344 47.8125 51.2891C47.7031 51.3438 47.4062 51.4453 47.1484 51.5234C46.8906 51.5938 46.5234 51.7031 46.3281 51.7578C45.7109 51.9375 45.1875 52.0078 43.9297 52.0781L43.0625 52.1328L42.8828 52.5312C42.7812 52.75 42.6641 53.0391 42.6094 53.1719C42.5547 53.3047 42.4297 53.5547 42.3203 53.7266C42.2109 53.8984 42.0625 54.2266 42 54.4609C41.9297 54.6953 41.7188 55.1953 41.5312 55.5859C41.3438 55.9688 41.0469 56.7031 40.8672 57.2109C40.6953 57.7188 40.4688 58.2969 40.3594 58.5C40.0625 59.0703 39.7812 59.7109 39.4531 60.5859C39.3594 60.8438 39.1953 61.2266 39.0938 61.4453C38.9922 61.6562 38.8594 61.9688 38.7969 62.125C38.6875 62.3984 38.6562 62.4219 38.3828 62.4219C38.2188 62.4219 38.0469 62.3906 38 62.3594C37.8672 62.2734 37.4688 61.3594 37.3438 60.8594C37.2578 60.4922 36.8594 59.5469 36.4922 58.8281C36.3359 58.5078 36.1328 58.0078 36.0625 57.7188C35.9844 57.4297 35.875 57.1562 35.8125 57.1016C35.75 57.0547 35.7031 56.9609 35.7031 56.9062C35.7031 56.8438 35.6719 56.7344 35.6328 56.6562C35.4844 56.3828 35.2422 55.8125 35.1172 55.4375C35.0469 55.2266 34.8438 54.7891 34.6719 54.4609C34.1641 53.5391 33.8281 52.8359 33.8281 52.7031C33.8281 52.5078 33.5625 52.4219 32.9531 52.4219C32.6406 52.4141 32.1719 52.3672 31.9141 52.3125C31.6562 52.25 31.1797 52.1484 30.8594 52.0781C30.5391 52.0078 30.2031 51.9219 30.1172 51.8828C29.3984 51.5625 28.9844 51.3516 28.7812 51.1953C28.6484 51.0938 28.5156 51.0156 28.4844 51.0156C28.3594 51.0156 27.8359 50.75 27.5156 50.5156C26.3906 49.7188 25.1875 48.5547 24.5469 47.6562C24.4062 47.4609 24.1172 47.0781 23.9062 46.7969C23.5859 46.375 22.8438 45.1562 22.7422 44.8828C22.7266 44.8359 22.625 44.6094 22.5234 44.375C21.9375 43.0703 21.6797 42.3281 21.3125 40.8984C21.1484 40.2734 21.1328 40.0156 21.1328 38.5156C21.1328 37.2031 21.1641 36.6953 21.2734 36.1719C21.4766 35.2109 21.6953 34.3516 21.8047 34.0781C21.9766 33.6641 22.0234 33.5312 22.1875 33.0469C22.4766 32.2188 23.5469 30.2031 23.9766 29.6875C24.1953 29.4219 24.4297 29.1016 24.5 28.9688C24.5703 28.8359 24.875 28.4062 25.1797 28.0156C25.4844 27.625 25.8047 27.1797 25.8984 27.0234C25.9844 26.8672 26.1719 26.6016 26.3125 26.4375C26.4453 26.2656 26.7031 25.9219 26.875 25.6641C27.0469 25.4062 27.3438 25 27.5391 24.7656C27.7266 24.5312 27.8828 24.2969 27.8906 24.25C27.8906 24.2031 28.0312 23.9844 28.2031 23.7656C28.375 23.5547 28.5156 23.3516 28.5156 23.3125C28.5156 23.2812 28.6484 23.0938 28.8125 22.8984C28.9844 22.7031 29.1797 22.4141 29.2578 22.2656C29.3359 22.1172 29.5469 21.7969 29.7266 21.5625C29.9141 21.3281 30.1328 20.9922 30.2188 20.8203C30.3047 20.6484 30.5391 20.2969 30.7422 20.0391C30.9453 19.7812 31.1641 19.4609 31.2344 19.3359C31.2969 19.2031 31.6484 18.6562 32.0078 18.1094C32.3594 17.5625 32.6562 17.0938 32.6562 17.0703C32.6562 17.0312 33.3203 15.9141 34.1016 14.6484C34.5469 13.9219 34.8125 13.4609 35.3047 12.5156C35.5938 11.9688 36.0938 10.9219 36.0938 10.8672C36.0938 10.8281 36.2188 10.5781 36.3672 10.3203C36.5156 10.0547 36.6328 9.82031 36.6406 9.80469C36.6406 9.78125 36.7422 9.53906 36.875 9.26562C37.2422 8.45312 37.3516 8.1875 37.4766 7.77344C37.5391 7.55469 37.6328 7.33594 37.6719 7.28125C37.7188 7.23438 37.7344 7.1875 37.7031 7.1875C37.6797 7.1875 37.7266 7.07031 37.8125 6.92969C37.8984 6.79688 37.9688 6.60938 37.9688 6.52344C37.9688 6.4375 38.0234 6.26562 38.0859 6.14062C38.1484 6.02344 38.2031 5.86719 38.2031 5.8125C38.2031 5.63281 38.2734 5.6875 38.3906 5.96875ZM49.2734 14.9844C49.3516 15.0234 49.5547 15.1172 49.7266 15.1953C49.8906 15.2656 50.1641 15.4297 50.3203 15.5547C50.4766 15.6797 50.6406 15.7812 50.6875 15.7812C50.7344 15.7812 50.9141 15.9062 51.1016 16.0625C51.2812 16.2109 51.5781 16.4141 51.75 16.5C51.9297 16.5859 52.1406 16.7344 52.2344 16.8281C52.3203 16.9219 52.5938 17.1328 52.8438 17.3047C53.2969 17.6094 53.5938 17.8516 54.5 18.6328C54.75 18.8438 55.0938 19.125 55.2578 19.2422C55.6875 19.5547 57.9688 21.875 58.5 22.5391C58.7422 22.8359 59.1094 23.2734 59.3125 23.5078C59.5234 23.7344 59.75 24.0312 59.8203 24.1719C59.8906 24.3047 60.0703 24.5625 60.2266 24.7344C60.3828 24.9141 60.5625 25.1562 60.625 25.2812C60.8047 25.6406 61.1094 26.1016 61.4219 26.5078C61.5859 26.7188 61.7188 26.9297 61.7188 26.9688C61.7188 27.0156 61.9297 27.4141 62.1875 27.8516C62.4375 28.2891 62.7188 28.8203 62.7969 29.0312C62.8828 29.2422 63.0469 29.6172 63.1562 29.8594C63.2656 30.1016 63.3594 30.3438 63.3594 30.3906C63.3594 30.4453 63.4141 30.5781 63.4766 30.6875C63.6484 31.0078 63.9062 31.625 63.9062 31.7188C63.9062 31.7656 64.0312 32.1797 64.1797 32.6406C65.1406 35.5234 65.4297 39.9062 64.875 43.125C64.8125 43.4922 64.75 43.9609 64.7266 44.1719C64.7031 44.3828 64.6562 44.6641 64.6172 44.7969C64.5781 44.9297 64.5 45.25 64.4453 45.5078C64.3516 46.0234 64.2188 46.4453 63.7578 47.8125C63.3906 48.8984 63.2188 49.3672 63.125 49.5703C63.0859 49.6562 63 49.8984 62.9297 50.1172C62.8594 50.3281 62.7422 50.625 62.6719 50.7578C62.6016 50.8984 62.2812 51.5234 61.9688 52.1484C61.6641 52.7734 61.25 53.5 61.0547 53.7656C60.8594 54.0312 60.7031 54.2734 60.7031 54.3047C60.7031 54.4141 59.8906 55.5938 59.5 56.0547C59.2812 56.3125 58.9922 56.6641 58.8672 56.8359C58.375 57.5078 57.3047 58.6641 56.5781 59.2969C56.4531 59.4062 56.3203 59.5469 56.2812 59.6172C56.1953 59.7578 54.9375 60.8438 54.3359 61.2891C54.1016 61.4609 53.7266 61.7578 53.5 61.9453C53.2734 62.1328 53.0078 62.3125 52.9062 62.3516C52.8125 62.3906 52.5391 62.5469 52.3047 62.6953C52.0625 62.8438 51.8516 62.9688 51.8281 62.9688C51.7969 62.9688 51.6172 63.0859 51.4141 63.2266C51.2188 63.3672 50.6562 63.6875 50.1719 63.9297C49.6953 64.1719 49.2344 64.4062 49.1562 64.4531C48.875 64.6094 48.3125 64.8281 48.0469 64.8828C47.8984 64.9141 47.5703 65.0234 47.3203 65.1328C46.7812 65.3516 45.3438 65.8281 45.0312 65.8906C44.9062 65.9141 44.6094 65.9844 44.375 66.0469C42.7891 66.4844 39.8047 66.7656 37.6953 66.6797C36.9219 66.6484 36.1953 66.625 36.0781 66.6328C35.9609 66.6328 35.8438 66.6016 35.8203 66.5625C35.7969 66.5234 35.7266 66.5078 35.6641 66.5312C35.6016 66.5625 35.3828 66.5391 35.1797 66.4922C34.9688 66.4453 34.625 66.3984 34.4062 66.375C34.0781 66.3438 33.625 66.2578 32.3125 65.9766C32.2344 65.9531 32.0547 65.9062 31.9141 65.8594C31.7734 65.8125 31.5938 65.7656 31.5156 65.75C31.2188 65.6875 28.375 64.6719 28.0703 64.5156C27.9531 64.4531 27.7109 64.3281 27.5391 64.2344C27.3672 64.1484 27.0703 64 26.875 63.9062C26.6797 63.8203 26.4297 63.6875 26.3125 63.6094C25.7656 63.2578 25.0781 62.8516 24.6875 62.6406C24.4531 62.5078 24.0859 62.2734 23.8672 62.1094C23.6562 61.9531 23.2578 61.6719 22.9922 61.4844C22.7188 61.2969 22.5 61.125 22.5 61.0859C22.5 61.0547 22.2656 60.8438 21.9766 60.6172C21.2031 60.0156 19.2188 58.0391 18.5625 57.2266C18.25 56.8359 17.9453 56.4688 17.8828 56.4062C17.5938 56.1172 16.6094 54.7266 16.4766 54.4141C16.3906 54.2266 16.1797 53.8906 16.0078 53.6719C15.7266 53.3203 15.4766 52.8594 15.4609 52.6797C15.4609 52.6406 15.4062 52.5625 15.3516 52.5C15.2891 52.4297 15.1875 52.2578 15.1172 52.1094C15.0469 51.9609 14.8672 51.6094 14.7188 51.3281C14.4375 50.8047 13.9062 49.5625 13.9062 49.4219C13.9062 49.375 13.7734 49.0156 13.6094 48.6328C13.4453 48.2422 13.2422 47.7031 13.1719 47.4219C13.0938 47.1406 12.9688 46.7031 12.8906 46.4453C12.8125 46.1875 12.7266 45.8359 12.6953 45.6641C12.6641 45.4922 12.5938 45.1953 12.5391 45C12.4219 44.6328 12.2656 43.7969 12.2266 43.3984C12.2188 43.2656 12.1641 43.0078 12.1172 42.8125C11.9219 42.0156 11.9375 37.3281 12.1484 36.0938C12.1719 35.9453 12.2344 35.5547 12.2812 35.2344C12.3281 34.9141 12.3828 34.6172 12.4062 34.5703C12.4375 34.5312 12.4609 34.4453 12.4609 34.375C12.5078 33.875 13.1484 31.7969 13.4766 31.0547C13.5703 30.8359 13.7891 30.3125 13.9531 29.8828C14.1172 29.4531 14.4453 28.7578 14.6875 28.3359C14.9219 27.9141 15.2109 27.3906 15.3203 27.1797C15.4375 26.9688 15.6719 26.6094 15.8438 26.3828C16.0078 26.1562 16.2344 25.8125 16.3281 25.625C16.4297 25.4297 16.6562 25.0781 16.8359 24.8438C17.0156 24.6094 17.2656 24.2656 17.3906 24.0938C18.2578 22.8516 21.625 19.3281 22.4375 18.8047C22.5547 18.7344 22.875 18.4609 23.1484 18.2031C23.4297 17.9453 23.6797 17.7344 23.7109 17.7344C23.7656 17.7344 24.125 17.4531 24.4922 17.1328C24.7578 16.8984 25.5 16.4062 25.5938 16.4062C25.6406 16.4062 25.7266 16.3516 25.7812 16.2891C25.8359 16.2266 26.1797 15.9766 26.5547 15.7344C26.9219 15.4922 27.375 15.1875 27.5625 15.0703C27.7422 14.9453 27.9297 14.8438 27.9688 14.8438C28.1719 14.8438 27.9766 15.1016 27.2578 15.7812C26.8281 16.1875 26.125 16.8594 25.6953 17.2656C24.9375 17.9844 23.9688 18.8984 23.7109 19.1406C23.3047 19.5156 22.3672 20.5703 22.0938 20.9531C21.9219 21.2031 21.7188 21.4219 21.6484 21.4453C21.4922 21.5078 20.8203 22.3984 19.6562 24.1172C19.4141 24.4688 19.1797 24.7812 19.1406 24.8047C19.0938 24.8359 18.8984 25.1797 18.7031 25.5703C18.5078 25.9688 18.1719 26.625 17.9609 27.0312C17.7422 27.4375 17.4844 28 17.375 28.2734C17.2656 28.5469 17.1406 28.8516 17.0859 28.9375C17.0391 29.0312 16.9922 29.125 16.9844 29.1562C16.9766 29.1953 16.9609 29.2344 16.9531 29.2578C16.9453 29.2812 16.9297 29.3203 16.9141 29.3516C16.9062 29.3906 16.8594 29.5156 16.8047 29.6484C16.75 29.7734 16.6094 30.2891 16.4844 30.7812C16.3672 31.2734 16.2344 31.7656 16.1875 31.875C16.1172 32.0547 15.9688 32.6328 15.8906 33.0078C15.875 33.0938 15.8359 33.2656 15.8125 33.3984C15.7812 33.5234 15.75 33.7031 15.7344 33.7891C15.7266 33.875 15.6406 34.4219 15.5469 35C15.4062 35.8672 15.375 36.4219 15.3672 38.1641C15.3516 41.0469 15.4453 42.125 15.8594 44.0625C16.0781 45.0781 16.0781 45.0703 16.1328 45.1562C16.1562 45.1953 16.2422 45.5156 16.3281 45.875C16.5234 46.7344 16.7422 47.4766 16.8984 47.8281C16.9766 47.9922 17.0312 48.1641 17.0312 48.2109C17.0312 48.2656 17.1484 48.5547 17.2969 48.8594C17.4375 49.1641 17.5781 49.4922 17.6094 49.5859C17.6406 49.6875 17.8516 50.0859 18.0781 50.4844C18.2969 50.8828 18.5312 51.3281 18.5859 51.4688C18.7031 51.7422 20.0391 53.8125 20.1953 53.9453C20.2812 54.0234 20.5703 54.3828 20.8984 54.8438C21.3516 55.4609 23.1875 57.375 23.9062 57.9766C24.1406 58.1719 24.5391 58.4609 24.7891 58.625C25.0312 58.7891 25.2578 58.9609 25.2969 59.0156C25.3516 59.1016 25.5469 59.25 26.5234 59.9531C26.7422 60.1094 27.0234 60.2812 27.1641 60.3438C27.2969 60.4062 27.5938 60.5703 27.8281 60.7188C28.4922 61.1328 30.625 62.1562 30.9922 62.2344C31.0391 62.2422 31.3125 62.3438 31.5859 62.4531C31.8672 62.5625 32.1641 62.6562 32.25 62.6562C32.3359 62.6562 32.5547 62.7109 32.7422 62.7734C33.1953 62.9375 34.3672 63.2109 34.5859 63.2109C34.6797 63.2031 34.7812 63.2422 34.8047 63.2812C34.8359 63.3281 34.8828 63.3438 34.9141 63.3281C34.9453 63.3047 35.3047 63.3594 35.7109 63.4453C36.2266 63.5547 36.8828 63.6172 37.9297 63.6484C39.5625 63.6953 40.8516 63.6016 41.7578 63.3828C41.8906 63.3516 42.0312 63.3203 42.0703 63.3203C42.2422 63.2969 43.7422 62.9453 44.2188 62.8047C44.5 62.7266 44.9844 62.5859 45.3047 62.4922C45.625 62.4062 46.0703 62.2422 46.2969 62.1406C46.5234 62.0391 46.7266 61.9531 46.7578 61.9531C46.8906 61.9531 48.7812 61.0078 49.2891 60.6875C49.4844 60.5703 49.6641 60.4688 49.7031 60.4688C49.7344 60.4688 50.0859 60.2422 50.4844 59.9609C50.8828 59.6797 51.4062 59.3203 51.6406 59.1641C52.7266 58.4453 54.3438 56.9922 55.5781 55.625C56.4688 54.6406 58.0625 52.4062 58.4062 51.6797C58.5 51.4609 58.6875 51.1094 58.8125 50.8906C59.0469 50.4922 59.625 49.3438 59.9609 48.6328C60.0625 48.4141 60.1641 48.1094 60.1953 47.9453C60.2188 47.7812 60.3125 47.4922 60.3906 47.2969C60.4766 47.1016 60.5625 46.8594 60.5781 46.75C60.6016 46.6484 60.6484 46.4531 60.6953 46.3125C61.0234 45.2734 61.2422 44.3203 61.5625 42.5C61.6016 42.3047 61.6719 41.3906 61.7266 40.4609C61.8047 39.1172 61.8047 38.4141 61.7266 36.9453C61.6797 35.9375 61.6172 35.0312 61.6016 34.9219C61.4688 34.1953 61.2578 33.1094 61.2109 32.9688C61.1797 32.875 61.1484 32.7188 61.1328 32.6328C61.1172 32.5391 61.0078 32.125 60.8984 31.7188C60.7812 31.3125 60.6797 30.9375 60.6719 30.8984C60.6562 30.8516 60.6328 30.7656 60.6094 30.7031C60.5859 30.6406 60.5312 30.4062 60.4844 30.1953C60.4062 29.8047 60.2422 29.3125 60.0391 28.8672C59.9766 28.7344 59.8359 28.4062 59.7266 28.125C59.6094 27.8438 59.4844 27.5781 59.4531 27.5391C59.4062 27.4766 59.1172 26.9453 58.6875 26.125C58.6484 26.0469 58.5469 25.8203 58.4688 25.625C58.3828 25.4375 58.1719 25.0781 58 24.8359C57.8203 24.6016 57.6328 24.3281 57.5859 24.2344C57.5391 24.1406 57.2266 23.7109 56.8906 23.2656C56.5625 22.8203 56.2188 22.3516 56.1406 22.2266C56.0547 22.0938 55.7266 21.7188 55.4141 21.3906C55.1016 21.0625 54.8438 20.7578 54.8438 20.7188C54.8438 20.625 53.1016 18.8594 51.6016 17.4375C51 16.8672 50.2422 16.1484 49.9219 15.8359C49.5938 15.5234 49.2031 15.1875 49.0469 15.0781C48.8828 14.9688 48.75 14.8594 48.75 14.8281C48.75 14.7734 49 14.8438 49.2734 14.9844ZM38.7891 69.5391C38.8203 69.5781 38.9219 69.6094 39.0156 69.6094C39.1172 69.6094 39.2812 69.6719 39.3828 69.7578C39.4844 69.8359 39.6797 69.9531 39.8047 70.0234C40.1719 70.2109 40.5469 71.0078 40.5469 71.6016C40.5391 72.4062 40.2891 72.875 39.6094 73.3438C39.3359 73.5312 39.1406 73.6016 38.7422 73.6406C37.9375 73.7188 37.5234 73.5859 37.0391 73.1016C36.4062 72.4609 36.3828 72.3984 36.375 71.6875C36.3672 71.2109 36.4062 70.9844 36.5078 70.7891C36.6797 70.4766 37.25 69.8438 37.3672 69.8438C37.4141 69.8438 37.5078 69.7891 37.5781 69.7266C37.6484 69.6641 37.8203 69.6094 37.9609 69.5938C38.1016 69.5859 38.2266 69.5547 38.2422 69.5234C38.2969 69.4453 38.7422 69.4531 38.7891 69.5391Z" fill="#FFDAB9"/>
<path d="M36.0939 18.675C35.8439 19.0484 35.172 19.9974 34.4533 21.0008C34.258 21.273 33.9533 21.6775 33.7736 21.9109C33.5939 22.1364 33.1798 22.6731 32.8439 23.101C32.5158 23.5288 32.1173 24.0188 31.9611 24.1977C31.8048 24.3688 31.5783 24.6489 31.4533 24.82C31.3283 24.9833 31.0626 25.2633 30.8673 25.4267C30.672 25.5978 30.383 25.8934 30.2345 26.0879C30.0861 26.2901 29.7658 26.6479 29.5314 26.8813C29.297 27.1224 29.0705 27.3557 29.0236 27.4024C28.9845 27.4569 28.7345 27.698 28.4767 27.9547C28.2189 28.2036 27.9455 28.4758 27.8673 28.5536C27.797 28.6392 27.3986 29.0125 26.9923 29.4015C25.8517 30.4749 25.8048 30.5215 25.1486 31.2527C24.8048 31.6339 24.5314 31.9839 24.5314 32.0228C24.5314 32.0694 24.3751 32.3261 24.1798 32.5984C23.9845 32.8628 23.8283 33.1351 23.8283 33.1973C23.8283 33.2518 23.8048 33.3295 23.7814 33.3529C23.6486 33.4773 23.4298 34.2863 23.3439 34.9397C23.2658 35.5153 23.2736 35.7797 23.3517 36.262C23.5001 37.141 23.508 37.1643 23.5861 37.3354C23.6251 37.421 23.6798 37.5766 23.7033 37.6854C23.7814 38.0199 24.7423 39.6456 25.133 40.1045C25.9298 41.0302 27.008 41.668 28.7892 42.2747C30.0626 42.7103 31.2423 42.6403 32.5392 42.0491C32.7111 41.9713 32.9376 41.878 33.047 41.8469C33.1564 41.8158 33.3751 41.6991 33.5314 41.6058C33.6955 41.5046 33.8439 41.4191 33.8751 41.4191C33.9455 41.4191 35.0158 40.7112 35.1173 40.6023C35.1642 40.5479 35.3439 40.4001 35.5236 40.2679C35.7033 40.1279 35.9455 39.8478 36.0705 39.6456L36.2892 39.28L36.3361 32.6684C36.3908 25.5356 36.4533 22.2142 36.5626 20.3785C36.6642 18.7606 36.6642 18.6673 36.5001 18.4728L36.3517 18.2939L36.0939 18.675ZM34.6095 22.8054C34.5158 23.1398 34.3908 23.5288 34.3283 23.6688C34.2658 23.8088 34.2189 23.9644 34.2189 24.0188C34.2189 24.0655 34.1486 24.2833 34.0705 24.5011C33.9533 24.8122 33.672 25.6834 33.5392 26.1345C33.4142 26.6012 32.8283 28.3047 32.6173 28.8414C32.4689 29.2148 32.3439 29.5881 32.3439 29.6581C32.3439 29.7359 32.2892 29.8682 32.2345 29.9537C32.172 30.0471 32.0783 30.2882 32.0236 30.4982C31.9767 30.7082 31.9064 30.9105 31.8751 30.9571C31.8439 30.996 31.7267 31.3461 31.6095 31.735C31.3205 32.6606 31.1095 33.2518 30.9845 33.4462C30.8751 33.6173 30.2892 35.4375 30.1642 35.9742C29.9142 37.1021 29.8283 38.191 29.8595 40.0345L29.883 41.8002L29.6876 41.8236C29.5783 41.8391 29.3283 41.7847 29.1173 41.7147C28.9142 41.6369 28.6876 41.5746 28.6173 41.5746C28.4142 41.5746 27.422 40.9602 27.0314 40.5946C26.8361 40.4079 26.6251 40.1434 26.5548 40.0034C25.9845 38.8289 25.7814 38.0199 25.8205 37.0087C25.8361 36.6198 25.8673 36.1998 25.8908 36.0753C25.9142 35.9586 25.9533 35.7331 25.9767 35.5853C26.0314 35.1964 26.0548 35.0875 26.1017 35.0019C26.1408 34.9319 26.2267 34.6519 26.2501 34.4807C26.258 34.4496 26.3361 34.2396 26.422 34.014C26.508 33.7885 26.6095 33.4773 26.6486 33.3295C26.6955 33.1818 26.8048 32.9017 26.8908 32.7073C26.9767 32.5128 27.1017 32.2406 27.1642 32.1006C27.2189 31.9605 27.4064 31.6339 27.5705 31.3616C27.7345 31.0971 27.9142 30.7393 27.9689 30.5682C28.0236 30.3971 28.1251 30.1871 28.2033 30.1015C28.2736 30.0159 28.6095 29.5259 28.9455 29.0125C29.2814 28.4992 29.6798 27.9625 29.8283 27.8147C29.9767 27.6669 30.1408 27.4413 30.1955 27.3091C30.2501 27.1768 30.4142 26.9435 30.5626 26.7957C30.7033 26.6479 31.0158 26.2979 31.2501 26.0179C31.4845 25.7378 31.8908 25.2789 32.1642 24.9911C32.4298 24.7033 32.797 24.2833 32.9689 24.0577C33.3439 23.5832 34.7111 22.1364 34.758 22.1675C34.7658 22.1831 34.7033 22.4709 34.6095 22.8054Z" fill="#FFDAB9"/>
<path d="M40.8281 18.6596C40.7812 18.9163 40.8047 20.962 40.8984 25.0457C40.9922 28.9349 41.0078 29.6116 41.0547 33.3297C41.1094 37.8801 41.1406 38.7668 41.2969 39.1246C41.3594 39.2724 41.4063 39.4746 41.4063 39.568C41.4063 39.8091 42.0078 40.7814 42.3125 41.0381C42.5781 41.2714 43.7031 41.8004 44.2578 41.9637C44.5625 42.0493 44.9375 42.1582 45.0938 42.2126C45.25 42.2593 45.8672 42.2982 46.4609 42.306C47.7422 42.3137 48.1563 42.2204 49.3281 41.6448C50.4063 41.1159 51.0547 40.6258 52.0313 39.5913C52.5234 39.0702 52.7031 38.8057 53.1016 37.9967C53.3594 37.46 53.6094 36.8455 53.6484 36.6355C53.7578 35.9821 53.7109 34.2087 53.5625 33.6019C53.3281 32.6296 52.625 31.4007 51.6406 30.2183C51.5156 30.0705 51.3047 29.8061 51.1719 29.635C51.0391 29.4638 50.8906 29.2849 50.8359 29.246C50.7813 29.1994 50.5859 28.9738 50.3984 28.7404C50.2109 28.5071 49.7969 28.0482 49.4844 27.7292C49.1641 27.4103 48.6406 26.8503 48.3047 26.4847C47.9766 26.1191 47.4453 25.5513 47.125 25.2246C46.8047 24.8901 46.4531 24.5012 46.3359 24.3534C46.2266 24.2134 45.6172 23.5056 44.9922 22.7822C44.3672 22.0588 43.8203 21.4054 43.7734 21.3198C43.6641 21.1254 41.5078 18.893 41.1641 18.6207L40.875 18.3952L40.8281 18.6596ZM43.3125 22.0277C44.7969 23.5522 45.1563 23.9412 45.1563 24.0267C45.1641 24.1201 45.6172 24.6257 46.0078 24.9524C46.1484 25.069 46.4219 25.4035 46.6172 25.6913C46.8125 25.9791 47.0625 26.3136 47.1797 26.4458C47.5625 26.8892 49.375 29.6505 49.375 29.7983C49.375 29.8139 49.4922 29.9772 49.6328 30.1639C49.7734 30.3506 49.9688 30.6928 50.0703 30.9262C50.2188 31.2918 50.6484 32.2018 50.875 32.6608C50.9453 32.793 51.1719 33.5008 51.2031 33.6797C51.2109 33.7186 51.2578 33.8353 51.3125 33.9209C51.3594 34.0142 51.4531 34.372 51.5078 34.7143C51.5703 35.0565 51.6406 35.3676 51.6719 35.4143C51.7578 35.5543 51.7422 37.7245 51.6484 37.8878C51.6016 37.9656 51.5156 38.2145 51.4531 38.4401C51.2578 39.1402 50.3438 40.1825 49.5703 40.6025C49.3594 40.7192 49.125 40.8592 49.0625 40.9214C48.9609 41.007 48.3438 41.2637 48.2344 41.2637C48.2188 41.2637 48.2031 40.6336 48.2031 39.8636C48.2031 39.1013 48.1719 38.3001 48.125 38.0979C48.0859 37.8956 48.0391 37.46 48.0156 37.1411C47.9766 36.5966 47.875 35.9199 47.6563 34.7687C47.5625 34.2787 47.5469 34.2164 47.4766 34.0298C47.4531 33.9675 47.3906 33.7342 47.3359 33.5242C47.2891 33.3064 47.2188 33.0963 47.1875 33.0575C47.1484 33.0108 47.0469 32.6996 46.9531 32.3574C46.625 31.1829 46.25 30.1406 45.8516 29.2694C45.6328 28.7871 45.4219 28.3204 45.3906 28.2348C45.0859 27.4881 44.8672 26.9903 44.6719 26.5625C44.3828 25.9402 44.3594 25.8702 44.1016 25.2402C43.9844 24.9601 43.75 24.439 43.5781 24.0734C43.2031 23.28 43 22.79 42.8047 22.1677C42.5391 21.3276 42.6094 21.3121 43.3125 22.0277Z" fill="#FFDAB9"/>
<path d="M39.6955 42.7725C39.5236 43.0836 39.5158 43.1614 39.5627 43.8381C39.6799 45.3472 39.9143 47.1051 40.0549 47.4862C40.0861 47.5484 40.1096 47.6496 40.1252 47.6962C40.1643 47.914 40.4299 48.5519 40.5471 48.7308C41.1955 49.7108 41.2971 49.8431 41.594 49.9909C41.7658 50.0764 42.0002 50.2164 42.1096 50.2942C42.219 50.372 42.6408 50.5431 43.0627 50.6754C44.4455 51.1187 46.2815 51.0332 47.3986 50.4887C47.7111 50.3331 48.008 50.2087 48.0627 50.2009C48.1174 50.2009 48.3283 50.0686 48.5315 49.9131C49.8361 48.8785 50.1408 48.6219 50.3127 48.3729C50.4221 48.2252 50.6955 47.8674 50.9221 47.5873C51.1486 47.3073 51.3908 46.9728 51.4533 46.8406C51.633 46.5061 51.7893 46.0317 51.7424 45.985C51.719 45.9616 51.594 45.985 51.4533 46.0472C50.1486 46.5995 47.6408 46.8562 46.0471 46.5839C45.2033 46.4439 44.1486 46.1017 43.594 45.7983C42.1877 45.0205 41.8205 44.7015 40.5549 43.1459C40.2346 42.7492 39.9455 42.4303 39.9221 42.4303C39.8986 42.4303 39.7971 42.5858 39.6955 42.7725Z" fill="#FFDAB9"/>
<path d="M37.4063 43.1458C37.336 43.2858 37.2578 43.4725 37.2344 43.558C37.211 43.6436 37.0547 43.8614 36.8828 44.0325C36.7188 44.2114 36.4297 44.577 36.25 44.8415C35.8516 45.4248 35.625 45.6971 35.5235 45.6971C35.4844 45.6971 35.2813 45.8682 35.0625 46.086C34.8438 46.296 34.625 46.4749 34.5703 46.4749C34.5078 46.4749 34.2266 46.5994 33.9297 46.7472C33.6407 46.895 33.3516 47.0194 33.2969 47.0194C33.2422 47.0194 33.0469 47.105 32.8672 47.2061C32.4766 47.4317 31.0078 47.9373 30.3594 48.0773C29.8203 48.1862 28.3047 48.1628 27.8907 48.0384C27.7422 47.9917 27.6016 47.9528 27.586 47.9528C27.5703 47.9528 27.6485 48.0695 27.7657 48.2173C27.875 48.3651 27.9688 48.5207 27.9688 48.5518C27.9688 48.5907 28.1953 48.8629 28.4688 49.1663C29.0313 49.773 29.9766 50.4652 30.5547 50.683C31.9219 51.2042 34.3594 51.1653 35.3985 50.6053C36.6094 49.9519 37.3907 48.4662 37.5391 46.5527C37.5469 46.4049 37.5782 46.016 37.6094 45.6971C37.7032 44.6237 37.6953 42.8969 37.5938 42.8969C37.5625 42.8969 37.4766 43.0135 37.4063 43.1458Z" fill="#FFDAB9"/>
<path d="M37.5781 50.2709C37.4531 50.4264 37.3437 50.5976 37.3437 50.6442C37.3437 50.8231 35.8516 51.9821 35.5 52.0755C35.3047 52.1299 35.1562 52.2232 35.1562 52.2777C35.1562 52.3399 35.3281 52.7366 35.5469 53.1644C35.7578 53.5845 35.9922 54.1523 36.0703 54.4245C36.1406 54.6968 36.2422 54.969 36.3047 55.039C36.3594 55.1013 36.4062 55.2102 36.4062 55.2724C36.4062 55.3346 36.4375 55.4202 36.4766 55.4668C36.6172 55.6069 37.0312 56.4391 37.0312 56.5714C37.0312 56.6492 37.0625 56.7425 37.0937 56.7814C37.1328 56.8281 37.2422 57.0847 37.3359 57.3648C37.4375 57.6448 37.5781 58.0104 37.6562 58.1815C38.1641 59.286 38.2656 59.5272 38.3125 59.7138C38.3359 59.8383 38.3984 59.9316 38.4453 59.9316C38.4922 59.9316 38.5 59.9005 38.4766 59.8539C38.4531 59.815 38.5 59.6283 38.5781 59.4494C38.6641 59.2627 38.7578 59.0293 38.7891 58.9204C38.8203 58.8116 38.9375 58.5938 39.0312 58.4382C39.1328 58.2748 39.2187 58.1271 39.2187 58.1037C39.2187 58.0726 39.7734 56.6958 40.3047 55.4202C40.5937 54.7279 40.9141 53.9267 40.9219 53.8645C40.9766 53.6467 41.3437 52.6666 41.4687 52.4177L41.6328 52.091L41.1797 51.9277C40.1172 51.5465 38.8984 50.8931 38.5937 50.5353C38.4844 50.4187 38.2656 50.2398 38.1094 50.1464L37.8203 49.9831L37.5781 50.2709Z" fill="#FFDAB9"/>
</svg>
