<svg width="408" height="101" viewBox="0 0 408 101" fill="none" xmlns="http://www.w3.org/2000/svg">
<g clip-path="url(#clip0_258_412)">
<path d="M241.13 39.2991V39.333C240.926 39.333 240.722 39.367 240.518 39.367C240.314 39.367 240.11 39.333 239.906 39.333C227.768 39.333 220.255 46.9609 220.255 59.2048V65.2244C220.255 77.0237 227.871 84.3436 240.076 84.3436C240.326 84.3502 240.576 84.3388 240.824 84.3097C240.994 84.3097 241.13 84.3436 241.3 84.3436C249.493 84.3436 255.206 81.3344 258.843 75.1088L251.602 70.901C249.187 74.492 245.957 77.1945 241.334 77.1945C235.146 77.1945 231.44 73.3637 231.44 66.8993V65.1893H260.136V58.0753C260.136 46.6518 252.691 39.2991 241.13 39.2991ZM240.518 46.3113C246.162 46.5852 249.562 50.3469 249.562 56.5374V58.2474H231.407V57.2549C231.407 50.4148 234.637 46.5852 240.518 46.3113ZM195.946 39.333C190.54 39.333 185.883 41.5909 183.435 45.3526L182.823 46.3101V40.3583H172.555V98.1268H183.332V77.9483L183.944 78.8718C186.256 82.3258 190.779 84.3776 196.048 84.3776H196.32H196.558C205.432 84.3776 214.373 78.5628 214.373 65.5323V58.2135C214.373 48.8417 208.865 39.3682 196.489 39.3682L196.422 39.3343H196.184L195.946 39.333ZM193.43 47.4735C199.686 47.5765 203.562 51.8509 203.562 58.6922V64.9845C203.562 71.8245 199.651 76.0662 193.328 76.2032C187.446 76.1002 183.332 71.5858 183.332 65.1554V58.691C183.332 52.1927 187.48 47.6104 193.43 47.4735ZM333.099 25.0712L312.359 83.3523H324.021L327.999 70.8683H350.642V71.0053L354.62 83.3862H366.282L345.509 25.1052H344.284L344.251 25.0712H333.099ZM339.287 35.0926L347.957 62.6261H330.548L339.287 35.0926ZM407.999 33.2795V25.0712H372.435V33.2795H384.913V75.0749H372.435V83.2832H407.999V75.0749H395.521V33.2795H407.999ZM290.973 39.3343H290.667H290.497C284.48 39.3343 280.196 41.386 278.087 45.3199L277.442 46.5173V40.3608H267.174V83.3184H277.951V57.7348C277.951 51.7152 281.181 48.2612 286.757 48.1582C292.095 48.2612 295.155 51.6473 295.155 57.496V83.3184H305.932V55.6479C305.932 45.4217 300.357 39.333 291.007 39.333L290.973 39.3343ZM137.908 23.8738C122.03 23.8738 112.137 33.8273 112.137 49.8682V58.5213C112.137 74.5622 121.996 84.5145 137.908 84.5145H138.147H138.384C154.262 84.5145 164.155 74.5622 164.155 58.5213V49.8682C164.155 33.8273 154.262 23.8738 138.384 23.8738H138.147H137.908ZM138.147 32.5621C147.599 32.6651 153.038 38.7525 153.038 49.2865V59.137C153.038 69.671 147.599 75.7596 138.147 75.8614C128.694 75.7584 123.254 69.671 123.254 59.137V49.2865C123.254 38.7525 128.694 32.6639 138.147 32.5621ZM44.2747 0.00150989C33.2924 0.00150989 23.5354 7.11546 20.1344 17.6155C16.6443 18.3392 13.3474 19.8025 10.4631 21.9078C7.57887 24.0131 5.17342 26.7122 3.40686 29.8256C-2.10113 39.4021 -0.8434 51.4413 6.53553 59.6496C4.2574 66.5248 5.03926 74.0484 8.67753 80.274C14.1518 89.8845 25.1666 94.8097 35.9452 92.518C38.3052 95.1974 41.2059 97.3398 44.4539 98.8024C47.7019 100.265 51.2225 101.014 54.7811 101C65.7633 101 75.5204 93.8863 78.9213 83.3862C85.993 81.9149 92.0793 77.4684 95.6152 71.1762C101.157 61.5996 99.8992 49.5604 92.5215 41.3521V41.3182C93.6468 37.9198 94.0379 34.3189 93.6685 30.7563C93.2991 27.1936 92.1778 23.7514 90.3795 20.6598C84.904 11.0833 73.888 6.15683 63.1443 8.44857C60.7734 5.77618 57.8651 3.64112 54.612 2.18486C51.3589 0.728598 47.8353 -0.0156218 44.2747 0.00150989ZM44.2747 6.56889L44.241 6.60282C48.6611 6.60282 52.9114 8.14195 56.3111 10.9815C56.1749 11.0493 55.9027 11.2202 55.6991 11.3232L35.7079 22.9176C34.6875 23.4994 34.0755 24.5937 34.0755 25.7911V53.0156L25.4738 48.0225V25.5172C25.4719 20.4972 27.4509 15.6817 30.9761 12.1286C34.5014 8.57548 39.2845 6.57659 44.2747 6.56889ZM68.3571 14.4948C71.67 14.4884 74.9258 15.3619 77.7955 17.0271C80.6653 18.6923 83.0471 21.09 84.7004 23.9781C86.8761 27.8089 87.6917 32.2894 86.9436 36.6329C86.8074 36.5299 86.5364 36.3942 86.3653 36.2911L66.3741 24.6616C65.8712 24.3755 65.3033 24.2251 64.7255 24.2251C64.1477 24.2251 63.5797 24.3755 63.0768 24.6616L39.651 38.2738V28.2864L58.9964 17.0338C61.8408 15.3749 65.0693 14.4988 68.3571 14.4936V14.4948ZM18.9117 24.8325V48.7399C18.9117 49.9373 19.5236 50.9977 20.5441 51.6134L43.935 65.1917L35.2983 70.2187L15.9866 59C11.6709 56.484 8.52387 52.348 7.23642 47.5002C5.94898 42.6523 6.62629 37.4886 9.11966 33.1426C11.3192 29.3073 14.7833 26.3682 18.9117 24.8325ZM63.7225 30.749L83.068 41.9678C92.0781 47.2008 95.1369 58.7613 89.9349 67.8252L89.9686 67.8591C87.7592 71.69 84.2908 74.6313 80.1767 76.1365V52.2278C80.1767 51.0305 79.5646 49.9361 78.5442 49.3556L55.1196 35.7421L63.7225 30.749ZM49.5104 38.9925L59.3711 44.7382V56.1957L49.5104 61.9414L39.651 56.1957V44.7382L49.5104 38.9925ZM65.014 48.0225L73.6157 53.0156V75.4869C73.6157 85.9531 65.1839 94.4353 54.8148 94.4353V94.4013C50.4284 94.4013 46.1444 92.8622 42.7784 90.0239C42.9146 89.956 43.2206 89.7839 43.3904 89.6809L63.3816 78.0865C64.402 77.5048 65.0477 76.4104 65.0128 75.2131L65.014 48.0225ZM59.4036 62.7291V72.7153L40.0582 83.934C31.048 89.1331 19.5562 86.0549 14.3542 77.0249H14.3879C12.1785 73.2279 11.3954 68.7135 12.1435 64.37C12.2796 64.473 12.5519 64.6088 12.7218 64.7118L32.713 76.3413C33.2159 76.6275 33.7838 76.7778 34.3616 76.7778C34.9394 76.7778 35.5074 76.6275 36.0103 76.3413L59.4036 62.7291Z" fill="#0F0F0F"/>
</g>
<defs>
<clipPath id="clip0_258_412">
<rect width="408" height="101" fill="white"/>
</clipPath>
</defs>
</svg>
